<svg xmlns="http://www.w3.org/2000/svg" viewBox="0 0 720 720" role="img" aria-labelledby="title desc">
  <title id="title">Ilustrasi developer</title>
  <desc id="desc">Ilustrasi seseorang bekerja di depan laptop dengan elemen antarmuka.</desc>
  <defs>
    <linearGradient id="bg" x1="0" x2="1" y1="0" y2="1">
      <stop offset="0" stop-color="#f7f4ee"/>
      <stop offset="0.55" stop-color="#d7f1ee"/>
      <stop offset="1" stop-color="#f4c95d"/>
    </linearGradient>
    <linearGradient id="screen" x1="0" x2="1" y1="0" y2="1">
      <stop offset="0" stop-color="#18202b"/>
      <stop offset="1" stop-color="#0f8b8d"/>
    </linearGradient>
  </defs>
  <rect width="720" height="720" fill="url(#bg)"/>
  <rect x="72" y="78" width="576" height="436" rx="28" fill="#ffffff" opacity="0.75"/>
  <rect x="112" y="122" width="212" height="28" rx="10" fill="#18202b"/>
  <rect x="112" y="174" width="138" height="18" rx="9" fill="#0f8b8d"/>
  <rect x="112" y="214" width="228" height="18" rx="9" fill="#d6d0c5"/>
  <rect x="112" y="254" width="180" height="18" rx="9" fill="#d6d0c5"/>
  <rect x="386" y="116" width="196" height="150" rx="20" fill="#18202b"/>
  <path d="M422 216l30-50 34 36 30-52 34 66H422z" fill="#6bd6d6"/>
  <circle cx="538" cy="154" r="18" fill="#f4c95d"/>
  <circle cx="352" cy="326" r="72" fill="#f25f5c"/>
  <path d="M284 498c14-84 52-126 116-126s102 42 116 126H284z" fill="#18202b"/>
  <circle cx="400" cy="294" r="58" fill="#f2c4a2"/>
  <path d="M344 274c16-54 70-72 116-32 22 20 28 46 16 74-28-12-58-34-82-68-14 20-30 30-50 26z" fill="#18202b"/>
  <rect x="196" y="468" width="408" height="132" rx="22" fill="url(#screen)"/>
  <rect x="232" y="504" width="148" height="16" rx="8" fill="#6bd6d6"/>
  <rect x="232" y="538" width="224" height="16" rx="8" fill="#ffffff" opacity="0.75"/>
  <rect x="232" y="572" width="184" height="16" rx="8" fill="#ffffff" opacity="0.5"/>
  <path d="M286 600h228l34 56H252l34-56z" fill="#293241"/>
  <rect x="226" y="650" width="348" height="22" rx="11" fill="#18202b"/>
  <circle cx="584" cy="356" r="38" fill="#0f8b8d"/>
  <path d="M568 356l12 12 24-28" fill="none" stroke="#ffffff" stroke-width="12" stroke-linecap="round" stroke-linejoin="round"/>
  <rect x="92" y="358" width="132" height="90" rx="18" fill="#ffffff"/>
  <rect x="116" y="386" width="84" height="14" rx="7" fill="#f25f5c"/>
  <rect x="116" y="416" width="58" height="14" rx="7" fill="#0f8b8d"/>
</svg>
